<svg id="Layer_1" data-name="Layer 1" xmlns="http://www.w3.org/2000/svg" viewBox="0 0 242.62 278.88"><defs><style>.cls-1{fill:#fff;}</style></defs><g id="T4rv71"><path class="cls-1" d="M402.22,446.11c18.76,0,37.38-2.08,55.35.46,30.93,4.37,53.74,32.09,54.49,63.25.52,21.89.14,43.81.14,65.72,0,1-.2,2-.34,3.28H402.22Z" transform="translate(-402.22 -299.94)"/><path class="cls-1" d="M402.26,299.94H511.91c.11,2.1.3,4.06.3,6,0,19.63.11,39.26,0,58.89-.21,40-29.54,69.17-69.42,69.24-13.39,0-26.79,0-40.54,0Z" transform="translate(-402.22 -299.94)"/><path class="cls-1" d="M644.84,444.84c-1.32,69.47-58.07,126.85-122,132.84V571.6c0-18.6-.07-37.2,0-55.79.21-42.52,28.94-71,71.45-71C611,444.85,627.69,444.84,644.84,444.84Z" transform="translate(-402.22 -299.94)"/><path class="cls-1" d="M523.3,301.53c64.44,5,121.58,66.12,121.24,132.56-7.36,0-14.74.15-22.11,0-15.25-.37-30.76.68-45.7-1.71-29.52-4.74-52.56-31.76-53.56-61.55-.75-22.29-.23-44.62-.25-66.93A14.27,14.27,0,0,1,523.3,301.53Z" transform="translate(-402.22 -299.94)"/></g></svg>