<svg id="Layer_1" data-name="Layer 1" xmlns="http://www.w3.org/2000/svg" viewBox="0 0 201.53 290.78"><defs><style>.cls-1{font-size:53.36px;font-family:AktivGrotesk-Medium;font-weight:500;}.cls-2{letter-spacing:-0.03em;}</style></defs><text class="cls-1" transform="translate(0 278.88)">D<tspan class="cls-2" x="38.74" y="0">e</tspan><tspan x="68.2" y="0">vLink</tspan></text><g id="T4rv71"><path d="M402.22,417.75c15.12,0,30.13-1.67,44.62.37,24.92,3.52,43.31,25.87,43.91,51,.42,17.65.11,35.32.11,53,0,.79-.16,1.58-.27,2.65H402.22Z" transform="translate(-396.25 -299.94)"/><path d="M402.25,299.94h88.38c.09,1.7.24,3.27.25,4.85,0,15.82.08,31.64,0,47.47-.17,32.21-23.81,55.75-55.95,55.8-10.8,0-21.59,0-32.68,0Z" transform="translate(-396.25 -299.94)"/><path d="M597.78,416.73C596.71,472.72,551,519,499.43,523.8v-4.9c0-15-.06-30,0-45,.17-34.27,23.33-57.23,57.59-57.2Z" transform="translate(-396.25 -299.94)"/><path d="M499.81,301.22c51.94,4,98,53.29,97.72,106.85-5.93,0-11.87.11-17.82,0-12.29-.3-24.79.55-36.83-1.38-23.79-3.81-42.37-25.6-43.17-49.61-.61-18-.19-36-.2-53.94A12,12,0,0,1,499.81,301.22Z" transform="translate(-396.25 -299.94)"/></g></svg>